<svg xmlns="http://www.w3.org/2000/svg" version="1.1" xmlns:xlink="http://www.w3.org/1999/xlink" xmlns:svgjs="http://svgjs.dev/svgjs" width="100%" height="100%" viewBox="0 0 1000 600"><rect width="1000" height="600" x="0" y="0" fill="#aa96da"/><g><rect width="333.3333333333333" height="333.3333333333333" rx="13.333333333333334" ry="13.333333333333334" y="214.4328542903013" fill="#c5fad5" transform="matrix(0.6503282575477906,0,0,0.6503282575477906,0,52.16021893323784)" x="192.2106170654297"/><path d="M411.37728668294136 456.0994979361541L305.097527995839 456.0994979361541L305.097527995839 449.0161648172713Q313.25228965371247 448.5994981632194 316.22848003979766 445.26616493080394Q319.2344323297437 441.9625936022494 319.56181327221304 436.0697366378007Q319.88919421468245 430.176879673352 319.88919421468245 422.6768799004173L319.88919421468245 422.6768799004173L319.88919421468245 330.0875969893069Q319.88919421468245 325.80188283334417 320.0975275417084 321.84354961985093Q320.3058608687344 317.8852164063576 320.5141941957603 314.6709307893856L320.5141941957603 314.6709307893856Q316.67490859771044 314.87926411641155 312.8058610957997 315.0875974434375Q308.9665754977498 315.32569267432433 305.097527995839 315.5340260013503L305.097527995839 315.5340260013503L305.097527995839 306.0995024774602L353.31181225041917 306.0995024774602L353.31181225041917 313.18283559634295Q345.3951458234326 313.3911689233689 342.2701459180431 316.81378786736695Q339.1749079165145 320.2364068113649 338.84752697404514 326.03997806423104Q338.5201460315758 331.8137874132363 338.5201460315758 339.52212051319697L338.5201460315758 339.52212051319697L338.5201460315758 431.45664153936866Q338.5201460315758 437.2304508883739 338.4308603199932 441.30783171731065Q338.31181270454977 445.3852125462474 337.8951460504979 448.1828315091675L337.8951460504979 448.1828315091675L377.9546686472046 447.5280696242287Q391.4665730000314 447.3197362972028 398.43085850347074 438.95664131230336Q405.3951440069101 430.59354632740394 405.3951440069101 411.7542611834847L405.3951440069101 411.7542611834847L412.657048548958 411.7542611834847L411.37728668294136 456.0994979361541Z " fill="#aa96da" transform="matrix(0.6503282575477906,0,0,0.6503282575477906,0,52.16021893323784)"/><path d="M657.1388629919088 453.5864370145273L649.7347919383474 453.5864370145273L624.2528977649588 378.8701725506678Q622.9017899084695 374.78982682407 621.820903623278 371.87143385405307Q620.7400173380865 368.95304088403617 620.172552038361 366.79126831365323Q619.5780645815057 364.6565179004001 619.1997543816888 363.1162549440023L619.1997543816888 363.1162549440023L608.8772903581103 363.6837202437278L608.8772903581103 355.7121838904408L650.1401242952942 355.7121838904408L650.1401242952942 361.5489698304747Q641.3849453852433 361.73812493038315 640.4932141999604 367.4938443990277Q639.6285051718073 373.22254171054243 642.7360532417326 382.5722080774485L642.7360532417326 382.5722080774485L651.680387251692 409.8105424642732Q653.2476723652196 414.4583534905965 654.7879353216174 419.2412753025687Q656.355220435145 423.99717495741106 657.9225055486727 428.67200814086414L657.9225055486727 428.67200814086414Q659.651923604979 423.4297096576856 661.5164524469342 418.0793225459879Q663.3539591317597 412.7289354342902 665.1103993451959 407.27045969407334L665.1103993451959 407.27045969407334L682.4316020653889 355.7121838904408L690.403138418676 355.7121838904408L710.0482466520307 412.32360307734336Q711.6155317655583 416.62012606097943 713.1557947219561 421.07878198739417Q714.7230798354838 425.5644600709387 716.2903649490113 430.0231159973535L716.2903649490113 430.0231159973535Q717.8306279054092 425.75361517084724 719.2898243904176 421.56518081573034Q720.7490208754261 417.37674646061345 722.1271508890452 413.1072456341072L722.1271508890452 413.1072456341072L734.9626755256938 376.1409346805593Q736.3137833821831 372.24974405387013 737.6919133958022 368.7368636269979Q739.0430212522915 365.2510053572554 740.7994614657276 363.1162549440023L740.7994614657276 363.1162549440023L729.5041997854769 363.6837202437278L729.5041997854769 355.7121838904408L763.3629626690993 355.7121838904408L763.3629626690993 361.5489698304747Q758.3098192858292 361.73812493038315 755.0941825873847 362.900077686964Q751.87854588894 364.0890526006746 749.743795475687 366.0346479140192Q747.6090450624338 367.98024322736387 746.2309150488147 370.6824589403425Q744.8798071923254 373.4116968104509 743.7178544357446 376.92457723732315L743.7178544357446 376.92457723732315L715.695877492156 453.5864370145273L707.9134962387775 453.5864370145273L689.4303407620037 400.46087609736713Q688.2683880054228 396.94799567049495 687.106435248842 393.5432038721418Q685.9174603351314 390.1384120737887 684.7555075785506 386.7336202754356Q683.5935548219697 383.32882847708254 682.4316020653889 380.0321253072486L682.4316020653889 380.0321253072486Q681.2696493088081 383.32882847708254 680.0806743950975 386.7336202754356Q678.9187216385167 390.1384120737887 677.7567688819358 393.5432038721418Q676.594816125355 396.94799567049495 675.4328633687743 400.46087609736713L675.4328633687743 400.46087609736713L657.1388629919088 453.5864370145273ZM816.8668337860764 456.09949762759743L816.8668337860764 456.09949762759743Q803.4368216925726 456.09949762759743 792.6549809977878 449.77631285922735Q781.8461181458732 443.4531280908574 775.6310220060224 431.88764483930873Q769.3889037090416 420.29513943063034 769.3889037090416 404.54122182396486L769.3889037090416 404.54122182396486Q769.3889037090416 390.9220546305525 775.5229333775033 379.0593276505763Q781.6569630459647 367.19660067060005 792.7360474691772 359.90061824555767Q803.8421540495194 352.60463582051534 818.4341188996041 352.60463582051534L818.4341188996041 352.60463582051534Q826.5948103527995 352.60463582051534 833.7016376779334 355.22578506210465Q840.8084650030672 357.84693430369396 846.2399185861543 363.1973214153917Q851.6983943263712 368.54770852708936 854.8059423962966 376.6273335088955Q857.913490466222 384.70695849070165 857.913490466222 395.5968878140056L857.913490466222 395.5968878140056L789.4393442993432 396.7588405705864Q789.4393442993432 411.53996052057954 792.6549809977878 422.7271335723111Q795.8435955391026 433.91430662404275 803.0585114927555 440.04833629250425Q810.2464052892788 446.18236596096574 821.5416669695295 446.18236596096574L821.5416669695295 446.18236596096574Q827.5676080094719 446.18236596096574 833.8907927778419 444.04761554771267Q840.2139775462119 441.9128651344595 845.6724532864288 438.21082960767876Q851.1039068695159 434.50879408089804 854.4276321964795 430.0231159973535L854.4276321964795 430.0231159973535L859.0754432228028 433.91430662404275Q853.8331447396242 442.102020234368 846.4290736860628 446.9660085177296Q839.0520247896311 451.82999680109117 831.2696435362526 453.96474721434424Q823.4872622828741 456.09949762759743 816.8668337860764 456.09949762759743ZM790.0068095990687 388.5981491173909L790.0068095990687 388.5981491173909L839.6194900893565 388.5981491173909Q839.6194900893565 381.5994104207762 837.5928283046226 375.06004839536786Q835.5391443627589 368.54770852708936 830.8643111793058 364.35927417197246Q826.2165001529826 360.19786197398537 818.6232739995125 360.19786197398537L818.6232739995125 360.19786197398537Q807.3280123192618 360.19786197398537 799.842874794311 366.8993569421724Q792.3577372693601 373.60085191035944 790.0068095990687 388.5981491173909ZM961.8136846302509 452.99194955767194L933.9808627865708 452.99194955767194Q933.4133974868453 449.695246387838 933.2242423869368 447.1551636176381Q933.0080651298986 444.61508084743815 932.6297549300814 441.9128651344595L932.6297549300814 441.9128651344595Q926.0093264332838 448.5062714741274 918.3350338084244 452.3163956294273Q910.6337190264353 456.09949762759743 902.0947173734228 456.09949762759743L902.0947173734228 456.09949762759743Q887.2865752662999 456.09949762759743 880.0986814697767 449.3980026594104Q872.9107876732535 442.6694855340935 872.9107876732535 432.9415089673704L872.9107876732535 432.9415089673704Q872.9107876732535 423.99717495741106 878.4503298848597 417.4848350891326Q883.9898720964659 410.97249522085406 892.8531396350359 406.78406086573716Q901.6893850164761 402.59562651062026 912.0929155114438 400.5689647258863Q922.5234681635413 398.51528078402254 932.2514447302644 398.704435883931L932.2514447302644 398.704435883931L932.2514447302644 386.65255380404625Q932.2514447302644 379.8429702073401 931.0624698165539 373.8170291673977Q929.900517059973 367.76406597032553 926.0093264332838 363.87287534363634Q922.1181358065946 359.98168471694703 913.5521119964524 359.79252961703855L913.5521119964524 359.79252961703855Q907.9315033134567 359.6033745171301 901.9866287449038 361.9272800302917Q896.0417541763507 364.2782077005831 893.339538463372 369.92583854070847L893.339538463372 369.92583854070847Q894.8798014197698 371.4661014971063 895.366200248106 373.5197854389701Q895.8525990764422 375.54644722370404 895.8525990764422 377.30288743714016L895.8525990764422 377.30288743714016Q895.8525990764422 379.65381510743157 893.9070037630975 382.6532745488379Q891.961408449753 385.67975614737395 887.0974201663914 385.4906010474655L887.0974201663914 385.4906010474655Q883.0170744397936 385.4906010474655 880.8823240265405 382.6532745488379Q878.7475736132874 379.8429702073401 878.7475736132874 375.95177958065085L878.7475736132874 375.95177958065085Q878.7475736132874 369.3313510838532 883.6926283680383 364.0890526006746Q888.664705279919 358.81973196036625 897.4198841899697 355.7121838904408Q906.1750631000206 352.60463582051534 917.2541475232331 352.60463582051534L917.2541475232331 352.60463582051534Q933.6025525867537 352.60463582051534 941.3849338401324 361.25172610204703Q949.1673150935108 369.92583854070847 948.9781599936023 388.5981491173909L948.9781599936023 388.5981491173909Q948.9781599936023 395.7860429139141 948.9781599936023 403.08202533895644Q948.9781599936023 410.37800776399877 948.8700713650832 417.6739901890411Q948.7890048936938 424.9699726140834 948.7890048936938 432.3740436676449L948.7890048936938 432.3740436676449Q948.7890048936938 435.48159173757034 948.5728276366555 438.5891398074958Q948.3836725367469 441.69668787742125 948.00536233693 445.58787850411045L948.00536233693 445.58787850411045Q951.4912206066724 445.398723404202 954.8960124050254 445.2095683042935Q958.3008042033787 445.02041320438497 961.8136846302509 444.83125810447643L961.8136846302509 444.83125810447643L961.8136846302509 452.99194955767194ZM932.2514447302644 405.3248643807287L932.2514447302644 405.3248643807287Q925.6310162334669 405.5140194806372 918.3350338084244 406.97321596564564Q911.0390513833821 408.43241245065417 904.9050217149206 411.35080542067107Q898.7709920464591 414.269198390688 894.987890048289 419.0521202026602Q891.1777658929891 423.8080198575026 891.3939431500274 430.6176034542088L891.3939431500274 430.6176034542088Q891.7722533498445 437.80549725073195 896.1498428048699 441.42646630612336Q900.5274322598952 445.02041320438497 906.5533732998376 445.02041320438497L906.5533732998376 445.02041320438497Q914.5249096531246 445.02041320438497 920.4697842216776 441.99393160584884Q926.4146587902306 438.9944721644426 932.2514447302644 433.5359964242257L932.2514447302644 433.5359964242257Q932.0352674732262 431.4012460109726 932.0352674732262 428.86116324077267Q932.0352674732262 426.34810262770253 932.0352674732262 423.6188647575941L932.0352674732262 423.6188647575941Q932.0352674732262 422.64606710092175 932.1433561017454 417.37674646061345Q932.2514447302644 412.1344479774349 932.2514447302644 405.3248643807287ZM1010.4535674638664 456.09949762759743L1010.4535674638664 456.09949762759743Q1005.9678893803218 456.09949762759743 1001.3200783539986 454.82945624249743Q996.6452451705456 453.5864370145273 992.6459659153371 449.8844014877465Q988.6737088172586 446.18236596096574 986.3227811469671 439.07553863583195Q983.9988756338055 431.9687113106981 983.9988756338055 420.29513943063034L983.9988756338055 420.29513943063034L984.3771858336224 363.87287534363634L969.4069107837208 364.0890526006746L969.4069107837208 355.7121838904408Q974.4600541669909 355.5230287905323 979.7023526501695 351.9290818922707Q984.9716732904778 348.30811283687933 989.1601076455947 342.0930166970285Q993.3215198435818 335.87792055717756 994.8888049571094 328.47384950361607L994.8888049571094 328.47384950361607L1001.5092334539071 328.47384950361607L1001.5092334539071 355.7121838904408L1034.179021423819 355.7121838904408L1034.179021423819 363.3054100439108L1001.5092334539071 363.6837202437278L1001.1039010969604 417.7820788175602Q1001.1039010969604 426.53725772761106 1002.5630975819688 432.67128739607256Q1004.0222940669772 438.7782949074043 1007.3460193939409 441.9128651344595Q1010.6427225637749 445.02041320438497 1015.9120432040834 445.02041320438497L1015.9120432040834 445.02041320438497Q1021.3434967871704 445.02041320438497 1026.1264185991427 441.9128651344595Q1030.882318253985 438.7782949074043 1034.5843537807657 433.3468413243172L1034.5843537807657 433.3468413243172L1039.8266522639442 437.61634215082347Q1035.557151437438 444.04761554771267 1031.3687170823212 447.7496510744934Q1027.1802827272043 451.42466444414436 1023.289092100515 453.2891932860996Q1019.3979014738256 455.1266999709251 1016.1011983039919 455.61309879926125Q1012.7774729770281 456.09949762759743 1010.4535674638664 456.09949762759743ZM1111.6245237577868 452.99194955767194L1111.6245237577868 447.1551636176381Q1117.6504647977292 447.1551636176381 1120.0013924680206 444.12868201910203Q1122.3252979811823 441.1292225776957 1122.7036081809993 435.778835465998Q1123.108940537946 430.42844835430026 1123.108940537946 423.4297096576856L1123.108940537946 423.4297096576856L1123.108940537946 396.1913752708609Q1123.108940537946 379.4376378503933 1117.7585534262485 371.0877912972893Q1112.4081663145507 362.7109225870555 1100.9237495343914 362.900077686964L1100.9237495343914 362.900077686964Q1093.7358557378682 363.1162549440023 1086.818183512643 366.4129581138362Q1079.9005112874177 369.7096612836702 1075.6310104609113 374.97898192397855L1075.6310104609113 374.97898192397855L1075.6310104609113 432.3740436676449Q1075.6310104609113 436.26523429433416 1075.4418553610028 439.2646937357405Q1075.2527002610943 442.29117533427655 1074.6582128042392 445.58787850411045L1074.6582128042392 445.58787850411045Q1077.7657608741642 445.398723404202 1080.7922424727003 445.3176569328126Q1083.7917019141069 445.2095683042935 1086.926272141162 445.02041320438497L1086.926272141162 445.02041320438497L1086.926272141162 452.99194955767194L1047.2307233175056 452.99194955767194L1047.2307233175056 447.1551636176381Q1053.2566643574482 447.1551636176381 1055.58056987061 444.12868201910203Q1057.931497540901 441.1292225776957 1058.4178963692373 435.778835465998Q1058.9042951975734 430.42844835430026 1058.9042951975734 423.4297096576856L1058.9042951975734 423.4297096576856L1058.9042951975734 331.392242473633Q1058.9042951975734 328.2846944037076 1058.985361668963 325.44736790508Q1059.093450297482 322.6370635635822 1059.4717604972989 318.74587293689297L1059.4717604972989 318.74587293689297Q1055.9859022275564 318.9350280368015 1052.5811104292034 319.12418313671Q1049.1763186308503 319.34036039374826 1045.663438203978 319.5295154936568L1045.663438203978 319.5295154936568L1045.663438203978 311.3418018833315Q1054.2294620141204 311.3418018833315 1058.985361668963 310.58518148369745Q1063.768283480935 309.80153892693363 1066.2002776226159 308.63958617035286Q1068.6322717642965 307.4506112566422 1069.9833796207859 306.0995034001529L1069.9833796207859 306.0995034001529L1075.6310104609113 306.0995034001529L1075.6310104609113 365.4401604571639Q1079.9005112874177 361.73812493038315 1085.2508983991152 358.92782058888537Q1090.6012855108129 356.09049409025783 1096.3570049794575 354.36107603395146Q1102.0857022909722 352.60463582051534 1107.544178031189 352.60463582051534L1107.544178031189 352.60463582051534Q1124.4600483944353 352.60463582051534 1131.9451859193862 363.1973214153917Q1139.4573456014668 373.8170291673977 1139.6465007013753 396.1913752708609L1139.6465007013753 396.1913752708609L1139.8356558012838 432.3740436676449Q1139.8356558012838 436.26523429433416 1139.7275671727648 439.2646937357405Q1139.6465007013753 442.29117533427655 1139.05201324452 445.58787850411045L1139.05201324452 445.58787850411045Q1142.1595613144455 445.398723404202 1145.1860429129815 445.3176569328126Q1148.2125245115176 445.2095683042935 1151.3200725814431 445.02041320438497L1151.3200725814431 445.02041320438497L1151.3200725814431 452.99194955767194L1111.6245237577868 452.99194955767194ZM1212.7954800517073 456.09949762759743L1212.7954800517073 456.09949762759743Q1199.3654679582032 456.09949762759743 1188.5836272634185 449.77631285922735Q1177.774764411504 443.4531280908574 1171.5596682716532 431.88764483930873Q1165.3175499746726 420.29513943063034 1165.3175499746726 404.54122182396486L1165.3175499746726 404.54122182396486Q1165.3175499746726 390.9220546305525 1171.451579643134 379.0593276505763Q1177.5856093115954 367.19660067060005 1188.6646937348078 359.90061824555767Q1199.7708003151502 352.60463582051534 1214.3627651652348 352.60463582051534L1214.3627651652348 352.60463582051534Q1222.5234566184304 352.60463582051534 1229.6302839435643 355.22578506210465Q1236.7371112686978 357.84693430369396 1242.168564851785 363.1973214153917Q1247.6270405920018 368.54770852708936 1250.7345886619273 376.6273335088955Q1253.8421367318529 384.70695849070165 1253.8421367318529 395.5968878140056L1253.8421367318529 395.5968878140056L1185.3679905649742 396.7588405705864Q1185.3679905649742 411.53996052057954 1188.5836272634185 422.7271335723111Q1191.7722418047333 433.91430662404275 1198.9871577583863 440.04833629250425Q1206.1750515549095 446.18236596096574 1217.4703132351601 446.18236596096574L1217.4703132351601 446.18236596096574Q1223.4962542751027 446.18236596096574 1229.8194390434728 444.04761554771267Q1236.1426238118427 441.9128651344595 1241.6010995520596 438.21082960767876Q1247.0325531351466 434.50879408089804 1250.3562784621104 430.0231159973535L1250.3562784621104 430.0231159973535L1255.0040894884337 433.91430662404275Q1249.761791005255 442.102020234368 1242.3577199516935 446.9660085177296Q1234.9806710552618 451.82999680109117 1227.1982898018832 453.96474721434424Q1219.4159085485048 456.09949762759743 1212.7954800517073 456.09949762759743ZM1185.9354558646996 388.5981491173909L1185.9354558646996 388.5981491173909L1235.5481363549875 388.5981491173909Q1235.5481363549875 381.5994104207762 1233.5214745702533 375.06004839536786Q1231.4677906283896 368.54770852708936 1226.7929574449365 364.35927417197246Q1222.1451464186134 360.19786197398537 1214.5519202651433 360.19786197398537L1214.5519202651433 360.19786197398537Q1203.2566585848926 360.19786197398537 1195.7715210599417 366.8993569421724Q1188.2863835349908 373.60085191035944 1185.9354558646996 388.5981491173909ZM1271.1633394520459 452.99194955767194L1271.1633394520459 447.1551636176381Q1277.1892804919883 447.1551636176381 1279.5402081622797 444.12868201910203Q1281.8641136754413 441.1292225776957 1282.2424238752583 435.778835465998Q1282.6477562322052 430.42844835430026 1282.6477562322052 423.4297096576856L1282.6477562322052 423.4297096576856L1282.6477562322052 379.0593276505763Q1282.6477562322052 375.95177958065085 1282.7288227035947 372.8442315107254Q1282.8369113321137 369.7096612836702 1283.4313987889689 366.4129581138362L1283.4313987889689 366.4129581138362Q1279.9185183620966 366.60211321374476 1276.5137265637436 366.71020184226387Q1273.1089347653906 366.79126831365323 1269.5960543385181 367.0074455706915L1269.5960543385181 367.0074455706915L1269.5960543385181 359.00888706027473L1275.6490175355902 359.00888706027473Q1283.9988640886945 359.00888706027473 1287.214500787139 357.3605354753578Q1290.4301374855836 355.7121838904408 1292.5648878988368 353.7665885770962L1292.5648878988368 353.7665885770962L1298.212518738962 353.7665885770962Q1298.590828938779 356.8741366470216 1298.7799840386876 361.4408812019555Q1298.9961612957259 366.0346479140192 1299.1853163956343 373.0333866106339L1299.1853163956343 373.0333866106339Q1302.1037093656514 368.16939832727235 1307.1568527489212 363.49456514381933Q1312.2099961321915 358.81973196036625 1318.5331809005615 355.7121838904408Q1324.8563656689316 352.60463582051534 1331.8551043655461 352.60463582051534L1331.8551043655461 352.60463582051534Q1337.313580105763 352.60463582051534 1341.3939258323608 355.5230287905323Q1345.4742715589587 358.44142176054925 1345.4742715589587 364.84567300030864L1345.4742715589587 364.84567300030864Q1345.4742715589587 366.4129581138362 1344.5014739022863 368.6557971556085Q1343.528676245614 370.89863619738077 1341.3939258323608 372.5469877822977Q1339.2591754191078 374.19533936721473 1335.7462949922356 374.19533936721473L1335.7462949922356 374.19533936721473Q1331.4767941657292 374.00618426730625 1328.936711395529 370.7905475688616Q1326.4236507824592 367.57491087041706 1326.9911160821848 363.3054100439108L1326.9911160821848 363.3054100439108Q1322.127127798823 363.1162549440023 1316.9929179441638 365.81847065698094Q1311.8316859323745 368.54770852708936 1307.34600784883 373.33063033906154Q1302.8873519224153 378.086529993904 1299.3744714955428 384.5178033907931L1299.3744714955428 384.5178033907931L1299.5636265954513 432.3740436676449Q1299.5636265954513 436.26523429433416 1299.482560124062 439.2646937357405Q1299.3744714955428 442.29117533427655 1298.7799840386876 445.58787850411045L1298.7799840386876 445.58787850411045Q1301.9145542657427 445.398723404202 1304.914013707149 445.3176569328126Q1307.940495305685 445.2095683042935 1311.0480433756106 445.02041320438497L1311.0480433756106 445.02041320438497L1311.0480433756106 452.99194955767194L1271.1633394520459 452.99194955767194Z " fill="#c5fad5" transform="matrix(0.6503282575477906,0,0,0.6503282575477906,0,52.16021893323784)"/></g></svg>